<?xml version="1.0" standalone="no"?><!DOCTYPE svg PUBLIC "-//W3C//DTD SVG 1.1//EN" "http://www.w3.org/Graphics/SVG/1.1/DTD/svg11.dtd"><svg t="1612167881433" class="icon" viewBox="0 0 1024 1024" version="1.1" xmlns="http://www.w3.org/2000/svg" p-id="6856" xmlns:xlink="http://www.w3.org/1999/xlink" width="200" height="200"><defs><style type="text/css"></style></defs><path d="M938.666667 170.666667v373.333333a10.666667 10.666667 0 0 1-10.666667 10.666667H96a10.666667 10.666667 0 0 1-10.666667-10.666667V170.666667a42.666667 42.666667 0 0 1 42.666667-42.666667h768a42.666667 42.666667 0 0 1 42.666667 42.666667z" fill="#939598" p-id="6857"></path><path d="M85.333333 608V682.666667a42.666667 42.666667 0 0 0 42.666667 42.666666h264.533333a10.666667 10.666667 0 0 1 10.666667 12.373334l-14.506667 85.333333a42.666667 42.666667 0 0 1-32 30.293333 20.906667 20.906667 0 0 0-15.786666 21.333334 22.186667 22.186667 0 0 0 22.613333 20.48h295.68a22.186667 22.186667 0 0 0 22.613333-20.48 20.906667 20.906667 0 0 0-15.786666-21.333334 42.666667 42.666667 0 0 1-32-30.293333l-14.506667-85.333333a10.666667 10.666667 0 0 1 11.946667-12.373334H896a42.666667 42.666667 0 0 0 42.666667-42.666666v-74.666667a10.666667 10.666667 0 0 0-10.666667-10.666667H96a10.666667 10.666667 0 0 0-10.666667 10.666667z" fill="#383838" p-id="6858"></path></svg>