<?xml version="1.0" standalone="no"?><!DOCTYPE svg PUBLIC "-//W3C//DTD SVG 1.1//EN" "http://www.w3.org/Graphics/SVG/1.1/DTD/svg11.dtd"><svg t="1612167986530" class="icon" viewBox="0 0 1024 1024" version="1.1" xmlns="http://www.w3.org/2000/svg" p-id="9028" xmlns:xlink="http://www.w3.org/1999/xlink" width="200" height="200"><defs><style type="text/css"></style></defs><path d="M280.592 263.984l-134.72-129.808-129.792 129.808h264.512z" fill="#5AB947" p-id="9029"></path><path d="M743.488 263.984l129.808-129.808L743.488 16H495.504l247.984 247.984z m-495.968 0L131.808 148.256 261.6 16h231.456L247.52 263.984z" fill="#97CE7B" p-id="9030"></path><path d="M495.504 16L247.52 263.984h495.968L495.504 16z" fill="#5AB947" p-id="9031"></path><path d="M495.504 727.936L247.52 263.984h495.968L495.504 727.936z" fill="#97CE7B" p-id="9032"></path><path d="M1008 263.984l-134.704-129.808-129.808 129.808H1008z m-16.528 2.448L493.056 727.936l233.904-461.504h264.512z" fill="#5AB947" p-id="9033"></path><path d="M13.616 249.904l481.888 478.032L261.6 249.904H13.616z" fill="#5AB947" p-id="9034"></path><path d="M421.04 632.096l-108.704-104.736-104.736 104.736h213.44z" fill="#FFD140" p-id="9035"></path><path d="M794.56 632.096l104.736-104.736L794.56 432H594.464L794.56 632.096z m-400.192 0l-93.376-93.376L405.728 432H592.48L394.368 632.096z" fill="#FFE183" p-id="9036"></path><path d="M594.464 432L394.368 632.096H794.56L594.464 432z" fill="#FFD140" p-id="9037"></path><path d="M594.464 1006.48L394.368 632.096H794.56L594.464 1006.48z" fill="#FFE183" p-id="9038"></path><path d="M1008 632.096l-108.704-104.736-104.736 104.736H1008z m-13.344 1.984L592.48 1006.48 781.216 634.08h213.44z" fill="#FFD140" p-id="9039"></path><path d="M205.616 620.736l388.848 385.744-188.736-385.744H205.616z" fill="#FFD140" p-id="9040"></path></svg>