<?xml version="1.0" standalone="no"?><!DOCTYPE svg PUBLIC "-//W3C//DTD SVG 1.1//EN" "http://www.w3.org/Graphics/SVG/1.1/DTD/svg11.dtd"><svg t="1612167711661" class="icon" viewBox="0 0 1024 1024" version="1.1" xmlns="http://www.w3.org/2000/svg" p-id="4301" xmlns:xlink="http://www.w3.org/1999/xlink" width="200" height="200"><defs><style type="text/css"></style></defs><path d="M1007.224 124.424l-73.36-35.984-35.376-72.76c-5.4-10.184-16.192-14.984-26.984-14.984-10.792 0-21.584 4.8-26.384 14.984l-35.984 72.76-70.752 35.984a29.12 29.12 0 0 0-16.8 26.384c0 11.392 6.6 22.192 16.8 26.984l70.752 35.376 35.984 71.36c4.8 10.192 14.992 16.192 26.384 16.192s22.184-6 26.984-16.192l35.376-71.36 73.36-35.376c10.192-4.8 16.192-15.592 16.192-26.984 0-11.392-6-21.592-16.192-26.384zM285.64 124.424l-71.36-35.984-35.384-72.76C173.504 5.488 162.72 0.696 151.92 0.696c-10.792 0-21.584 4.8-26.384 14.984l-35.976 72.76-72.76 35.984A29.12 29.12 0 0 0 0 150.808c0 11.392 6.6 22.192 16.792 26.984l72.76 35.376 35.976 71.36c4.8 10.192 14.992 16.192 26.384 16.192s22.184-6 26.984-16.192l35.376-71.36 71.36-35.376c10.2-4.8 16.192-15.592 16.192-26.984 0-11.392-5.992-21.592-16.184-26.384z" fill="#FEDB41" p-id="4302"></path><path d="M1022.536 407.96a29.984 29.984 0 0 0-24.208-20.408L680.272 341.6 538.936 55.224a29.928 29.928 0 0 0-26.88-16.72c-0.128 0-0.224 0.096-0.352 0.096l-29.976 45.88v406.624l29.984 34.488 63.52 15.304 393.72-91.024 53.584-41.92z" fill="#FCBF29" p-id="4303"></path><path d="M784.248 661.608c150.032-146.24 112.528-107.736 230.704-222.936a29.984 29.984 0 0 0 7.584-30.712L511.712 525.6l2.376 49.384 249.768 393.104 62.464 49.576a29.968 29.968 0 0 0 11.92-29.312l-53.992-326.744z" fill="#FE9923" p-id="4304"></path><path d="M826.528 1017.864a30.384 30.384 0 0 1-31.784 1.8L512.304 861.6h-0.592l-282.448 158.064c-10.192 5.4-22.184 4.8-31.176-1.8l6.6-40.776 259.648-424.512 47.376-26.984 314.816 492.272z" fill="#FEDB41" p-id="4305"></path><path d="M1.552 407.96a29.984 29.984 0 0 0 7.584 30.712C127.288 553.848 89.888 515.44 239.84 661.608l-53.96 326.744a29.968 29.968 0 0 0 11.92 29.312L511.704 525.6l-45.936-40.624L75.408 390.448 1.552 407.96z" fill="#FEA832" p-id="4306"></path><path d="M511.712 38.6a29.888 29.888 0 0 0-26.528 16.616L343.816 341.608 25.768 387.552a29.992 29.992 0 0 0-24.216 20.4L511.712 525.6V38.6z" fill="#FEDB41" p-id="4307"></path><path d="M826.528 1017.864a30.384 30.384 0 0 1-31.784 1.8L512.304 861.6h-0.592v-336l314.816 492.264z" fill="#FCBF29" p-id="4308"></path></svg>